<svg id="_0534_content_creation" xmlns="http://www.w3.org/2000/svg" xmlns:xlink="http://www.w3.org/1999/xlink" viewBox="0 0 500 500" data-imageid="content-creation-91" imageName="Content Creation" class="illustrations_image" style="width: 166px;"><defs><style>.cls-1_content-creation-91{opacity:.1;}.cls-1_content-creation-91,.cls-2_content-creation-91,.cls-3_content-creation-91,.cls-4_content-creation-91,.cls-5_content-creation-91,.cls-6_content-creation-91,.cls-7_content-creation-91,.cls-8_content-creation-91,.cls-9_content-creation-91{stroke-width:0px;}.cls-1_content-creation-91,.cls-3_content-creation-91,.cls-4_content-creation-91{isolation:isolate;}.cls-1_content-creation-91,.cls-4_content-creation-91{fill:#020202;}.cls-2_content-creation-91{fill:url(#linear-gradient);}.cls-3_content-creation-91{opacity:.18;}.cls-3_content-creation-91,.cls-9_content-creation-91{fill:#68e1fd;}.cls-4_content-creation-91{opacity:.28;}.cls-5_content-creation-91{fill:#231f20;}.cls-6_content-creation-91{fill:#c14834;}.cls-7_content-creation-91{fill:#fff;}.cls-8_content-creation-91{fill:#ffb4a3;}</style><linearGradient id="linear-gradient-content-creation-91" x1="284.96" y1="-13.72" x2="81.93" y2="111.4" gradientTransform="translate(-59.85 339)" gradientUnits="userSpaceOnUse"><stop offset="0" stop-color="#231f20"/><stop offset=".08" stop-color="#231f20" stop-opacity=".69"/><stop offset=".21" stop-color="#231f20" stop-opacity=".32"/><stop offset="1" stop-color="#231f20" stop-opacity="0"/></linearGradient></defs><path id="background_content-creation-91" class="cls-3_content-creation-91 targetColor" d="M245.45,24.76c-60.55,8.02-117.74,44.59-146.97,98.55-8.38,15.53-14.69,32.14-23.76,47.32-10.17,16.77-23.76,31.39-34.46,47.84-32.46,49.47-35.31,115.45-11.73,169.1,17.78,40.46,51.71,64.02,96.02,64.19,21.81.07,42.25-7.62,63.64-8.66,29.53-1.4,60.54,8.04,88.91,15,31.7,7.77,64.03,15.37,96.62,13.37,32.59-2,66-14.91,85.44-41.13,19.24-25.94,22.08-60.81,17.57-92.78-4.51-31.97-15.62-62.65-21.56-94.36-6.85-36.68-6.99-74.95-19.98-109.91-19.93-53.59-69.99-93.44-125.69-105.92-21.03-4.64-42.71-5.52-64.05-2.6Z" style="fill: rgb(104, 225, 253);"/><g id="phone_content-creation-91"><path class="cls-9_content-creation-91 targetColor" d="M338.59,96.99v285.3c0,13.75-11.15,24.9-24.9,24.92h-123.5c-13.76,0-24.92-11.16-24.92-24.92V96.99c0-13.76,11.14-24.92,24.9-24.93h123.51c13.76,0,24.91,11.17,24.9,24.93h0Z" style="fill: rgb(104, 225, 253);"/><rect class="cls-5_content-creation-91" x="168.68" y="76.29" width="166.48" height="326.16" rx="24.09" ry="24.09"/><path class="cls-9_content-creation-91 targetColor" d="M330.64,103.12v269.17c-.13,12.71-10.53,22.9-23.24,22.78h-110.84c-4.05.01-8.03-1.03-11.56-3.02-7.2-3.97-11.68-11.54-11.71-19.76V103.12c.14-12.71,10.55-22.91,23.27-22.78h18.73v3.31c.09,4.44,2.85,8.4,6.99,10.02,1.34.53,2.76.8,4.19.81h51.48c6.11,0,11.09-4.9,11.18-11.01v-3.13h18.17c6-.03,11.79,2.23,16.17,6.33,4.57,4.25,7.17,10.21,7.17,16.45Z" style="fill: rgb(104, 225, 253);"/><rect class="cls-1_content-creation-91" x="194.91" y="231.61" width="50.8" height="7.76" rx="3.87" ry="3.87"/><rect class="cls-1_content-creation-91" x="194.91" y="246.99" width="50.8" height="7.76" rx="3.87" ry="3.87"/><rect class="cls-1_content-creation-91" x="194.91" y="262.38" width="50.8" height="7.76" rx="3.87" ry="3.87"/></g><g id="graphic_2_content-creation-91"><path class="cls-1_content-creation-91" d="M314.37,143.75v30.84c0,8.44-6.84,15.29-15.29,15.29h-89.51l-36.33,41.73v-103.14h125.77c8.44-.05,15.32,6.74,15.37,15.18,0,0,0,0,0,.01v.08Z"/><rect class="cls-7_content-creation-91" x="178.88" y="115.34" width="131.8" height="61.42" rx="15.27" ry="15.27"/><circle class="cls-9_content-creation-91 targetColor" cx="308.25" cy="115.13" r="11.01" style="fill: rgb(104, 225, 253);"/><circle class="cls-4_content-creation-91" cx="308.25" cy="115.13" r="11.01"/><path class="cls-9_content-creation-91 targetColor" d="M207.94,134.96h71.57c1.67,0,3.03,1.36,3.03,3.03h0c0,1.67-1.36,3.03-3.03,3.03h-71.57c-1.67,0-3.03-1.36-3.03-3.03h0c0-1.67,1.36-3.03,3.03-3.03Z" style="fill: rgb(104, 225, 253);"/><rect class="cls-9_content-creation-91 targetColor" x="204.9" y="151.13" width="77.63" height="6.07" rx="3.03" ry="3.03" style="fill: rgb(104, 225, 253);"/></g><g id="character_content-creation-91"><polygon class="cls-8_content-creation-91" points="145.27 282.97 143.96 292.96 148.16 293.35 152.49 282.72 145.27 282.97"/><path class="cls-9_content-creation-91 targetColor" d="M149.37,291.86c-.2-.17-.37-.35-.53-.56-.41.26-.92.34-1.39.21l-2.09-.32c-.37-.03-.74-.12-1.08-.27-.05-.03-.11-.03-.15,0h0l-.44.88c-.72,1.55-1.13,3.22-1.19,4.93,3.99.85,8.07,1.16,12.14.91.67.07,1.32-.22,1.72-.76.15-.36.14-.76-.02-1.12-.4-.81-1.12-1.42-1.98-1.69-1.09-.44-2.2-.78-3.27-1.33-.61-.21-1.18-.51-1.7-.89Z" style="fill: rgb(104, 225, 253);"/><polygon class="cls-8_content-creation-91" points="173.36 285.4 172.26 295.41 176.46 295.72 180.58 285 173.36 285.4"/><path class="cls-1_content-creation-91" d="M195.67,171.01c-.51.05-1.03-.02-1.51-.21-.76-.53-1.28-1.33-1.45-2.25-2.67-7.64-7.98-15.05-15.75-17.19-1.84,8.26-1.5,16.81-1.16,25.28.05,2.26.36,4.84,2.19,6.15,1.2.7,2.59,1.03,3.98.93,8.77.13,17.44-1.93,25.21-5.98,2.35-1.22,7.11-5.93,2.55-7.32-1.41-.43-4.4.33-5.85.38l-8.21.2Z"/><polygon class="cls-5_content-creation-91" points="143.41 213.64 150.37 248.13 144.96 285.51 155.06 286.06 168.86 243.8 163.15 210.67 143.41 213.64"/><polygon class="cls-5_content-creation-91" points="178.17 210.35 190.37 256.19 181.99 288.12 173.02 287.86 173.68 260.75 156.94 217.33 178.17 210.35"/><path class="cls-8_content-creation-91" d="M208.26,171.47c1.33-.83,2.75-1.47,4.25-1.92.47-.22,1.02-.19,1.47.07.24.21.4.5.45.82.26,1.01.2,2.08-.17,3.05,1.72.9,3.51,1.63,5.36,2.21.78.11,1.47.55,1.91,1.2.25.69.05,1.47-.5,1.95-.55.46-1.21.77-1.91.91-4.59,1.18-12.11.26-13.32-5.22-.26-1.2.17-1.4,1.11-2.13.44-.33.88-.63,1.35-.92Z"/><path class="cls-8_content-creation-91" d="M172.65,129.69c1.1,2.07,1.83,4.32,2.14,6.65.3,2.37-.68,4.72-2.56,6.18-.56.28-1.09.63-1.57,1.04-1.64,1.77.36,4.87-.57,7.13-.75,1.54-2.56,2.25-4.16,1.64-1.55-.66-2.72-1.99-3.18-3.61-.47-1.62-.7-3.29-.68-4.98l-.38-10.01c-.28-2.22.01-4.48.87-6.55,1.18-2.16,3.48-3.47,5.94-3.4,2.49.31,3.29,3.95,4.17,5.91Z"/><path class="cls-7_content-creation-91" d="M208.65,178.91s-18.83,17.56-20.2,17.59c-1.37.03-10.11-10.56-10.11-10.56l-.17,24.41c-2.34,1.44-4.79,2.72-7.31,3.82-4.15,1.79-9.33,3.49-13.91,3.1-9.35-.65-13.53-3.69-13.53-3.69l4.51-57.59s10.7-8.04,14.44-6.94c2.67.42,5.39.36,8.03-.17,5.35-.83,11,6.39,11,6.39l7.63,23.29,16.64-6.31c2.28,1.39,3.47,4.05,2.98,6.67Z"/><path class="cls-6_content-creation-91" d="M174.54,118.86c.1-1.26-.22-2.52-.92-3.59-1.34-1.77-3.97-1.89-6.12-1.35-1.48.44-2.91,1.04-4.27,1.77-.99.44-2.09.6-3.16.47-2.86.02-5.6,1.11-7.69,3.06-2.85,2.86-3.46,6.94-3.67,10.77-.23,4.34,1.8,7.87,4.7,11.08,2.51,2.83,6.98,5.55,10.08,1.85,1.36-1.88,1.95-4.22,1.65-6.52-1.57-.09-2.91-1.2-3.29-2.72-.26-.94.05-1.95.8-2.59.94-.6,2.2-.33,2.8.61,0,0,0,0,0,.01.09.14.15.3.21.46.44-.93.74-1.91.92-2.93.36-.97,1.55-1.84,2.36-1.21.47.37.77,1.16,1.35,1.02.19-.07.36-.2.48-.37,1.13-1.14,2.09-2.45,2.82-3.88.66-1.69.99-3.49.96-5.3-.02-.18,0-.42-.01-.64Z"/><path class="cls-6_content-creation-91" d="M136.77,117.49c-4.14-.42-8.11,1.79-9.93,5.54-2.12,4.59-.42,9.91.06,14.94.76,3.59-1.06,7.23-4.4,8.76-3.52,2.21-7.57,3.74-10.35,6.83-2.19,2.54-3.44,5.76-3.55,9.11-.15,1.4.12,2.82.79,4.06.65.91,1.48,1.67,2.44,2.24,5.38,3.75,12.05,5.16,18.49,3.94,6.32-1.44,11.92-6.48,13.13-12.86,1.25-6.74-2.29-13.33-3.72-20.02-.53-1.58-.38-3.31.41-4.78,1.03-1.42,3.01-1.83,4.51-2.77,8.25-5.08-1.75-14.26-7.89-15Z"/><rect class="cls-9_content-creation-91 targetColor" x="145.56" y="123.76" width="6.47" height="6.47" rx="3.17" ry="3.17" transform="translate(-2.7 3.23) rotate(-1.23)" style="fill: rgb(104, 225, 253);"/><path class="cls-9_content-creation-91 targetColor" d="M177.64,294.21c-.2-.17-.38-.35-.54-.56-.41.27-.92.36-1.39.24l-2.1-.26c-.37-.03-.74-.12-1.08-.27h-.15s-.41.89-.41.89c-.69,1.56-1.06,3.25-1.1,4.96,4.01.77,8.1.98,12.16.65.66.06,1.31-.24,1.69-.79.15-.36.14-.76-.02-1.12-.42-.8-1.14-1.39-2.01-1.65-1.1-.41-2.22-.73-3.3-1.22-.62-.21-1.2-.5-1.74-.87Z" style="fill: rgb(104, 225, 253);"/></g><g id="graphic_1_content-creation-91"><path class="cls-1_content-creation-91" d="M330.64,230.84v78.6h-68.03c-3.91,0-7.09-3.16-7.1-7.07,0,0,0-.02,0-.03h0v-64.38c-.02-3.91,3.14-7.1,7.06-7.11,0,0,.02,0,.03,0h68.04Z"/><rect class="cls-7_content-creation-91" x="255.51" y="222.38" width="110.96" height="78.58" rx="7.1" ry="7.1"/><polygon class="cls-9_content-creation-91 targetColor" points="349.5 290.11 272.47 290.11 272.47 233.24 273.87 233.24 273.87 288.71 349.5 288.71 349.5 290.11" style="fill: rgb(104, 225, 253);"/><polygon class="cls-9_content-creation-91 targetColor" points="273.38 269.68 272.65 268.47 292.08 256.54 320.63 260.96 345.86 246.39 346.55 247.6 320.9 262.41 320.66 262.37 292.37 257.99 273.38 269.68" style="fill: rgb(104, 225, 253);"/><circle class="cls-9_content-creation-91 targetColor" cx="293.09" cy="257.41" r="3.05" style="fill: rgb(104, 225, 253);"/><circle class="cls-9_content-creation-91 targetColor" cx="320.77" cy="261.67" r="3.05" style="fill: rgb(104, 225, 253);"/><circle class="cls-9_content-creation-91 targetColor" cx="345.69" cy="247.46" r="3.05" style="fill: rgb(104, 225, 253);"/><circle class="cls-4_content-creation-91" cx="293.09" cy="257.41" r="3.05"/><circle class="cls-4_content-creation-91" cx="320.77" cy="261.67" r="3.05"/><circle class="cls-4_content-creation-91" cx="345.69" cy="247.46" r="3.05"/></g><g id="stair_content-creation-91"><path class="cls-5_content-creation-91" d="M135.64,297.7h50.69c1.83,0,3.31,1.48,3.31,3.31h0c0,1.83-1.48,3.31-3.31,3.31h-50.69c-1.83,0-3.31-1.48-3.31-3.31h0c0-1.83,1.48-3.31,3.31-3.31Z"/><path class="cls-9_content-creation-91 targetColor" d="M176.87,304.28h-6.43l-5.14,13.88h-26.55l5.14-13.88h-6.43l-45.14,121.99h6.43l4.47-12.06h26.55l-4.47,12.06h6.43l4.47-12.06h.18v-.52l40.15-108.47v121.05h6.44v-121.99h-6.11ZM163.54,322.85l-6.68,18.17h-26.55l6.71-18.17h26.52ZM121.86,363.8l6.69-18.08h26.55l-6.69,18.08h-26.55ZM146.64,368.54l-6.68,18.08h-26.55l6.69-18.08h26.54ZM104.98,409.5l6.68-18.17h26.55l-6.71,18.17h-26.52Z" style="fill: rgb(104, 225, 253);"/><path class="cls-2_content-creation-91" d="M176.87,304.28h-6.43l-5.14,13.88h-26.55l5.14-13.88h-6.43l-45.14,121.99h6.43l4.47-12.06h26.55l-4.47,12.06h6.43l4.47-12.06h.18v-.52l40.15-108.47v121.05h6.44v-121.99h-6.11ZM163.54,322.85l-6.68,18.17h-26.55l6.71-18.17h26.52ZM121.86,363.8l6.69-18.08h26.55l-6.69,18.08h-26.55ZM146.64,368.54l-6.68,18.08h-26.55l6.69-18.08h26.54ZM104.98,409.5l6.68-18.17h26.55l-6.71,18.17h-26.52Z"/></g></svg>