<svg id="_0242_reminder_note_1" xmlns="http://www.w3.org/2000/svg" xmlns:xlink="http://www.w3.org/1999/xlink" viewBox="0 0 500 500" data-imageid="reminder-note-1-20" imageName="Reminder Note 1" class="illustrations_image" style="width: 166px;"><defs><style>.cls-1_reminder-note-1-20{fill:url(#linear-gradient);}.cls-1_reminder-note-1-20,.cls-2_reminder-note-1-20,.cls-3_reminder-note-1-20,.cls-4_reminder-note-1-20,.cls-5_reminder-note-1-20,.cls-6_reminder-note-1-20,.cls-7_reminder-note-1-20,.cls-8_reminder-note-1-20,.cls-9_reminder-note-1-20,.cls-10_reminder-note-1-20,.cls-11_reminder-note-1-20,.cls-12_reminder-note-1-20,.cls-13_reminder-note-1-20,.cls-14_reminder-note-1-20,.cls-15_reminder-note-1-20,.cls-16_reminder-note-1-20,.cls-17_reminder-note-1-20,.cls-18_reminder-note-1-20{stroke-width:0px;}.cls-1_reminder-note-1-20,.cls-4_reminder-note-1-20,.cls-5_reminder-note-1-20,.cls-6_reminder-note-1-20,.cls-7_reminder-note-1-20,.cls-14_reminder-note-1-20{isolation:isolate;}.cls-1_reminder-note-1-20,.cls-4_reminder-note-1-20,.cls-5_reminder-note-1-20,.cls-6_reminder-note-1-20,.cls-19_reminder-note-1-20{opacity:.26;}.cls-2_reminder-note-1-20{fill:url(#linear-gradient-11-reminder-note-1-20);}.cls-3_reminder-note-1-20{fill:url(#linear-gradient-10-reminder-note-1-20);}.cls-4_reminder-note-1-20{fill:url(#linear-gradient-2-reminder-note-1-20);}.cls-5_reminder-note-1-20{fill:url(#linear-gradient-4-reminder-note-1-20);}.cls-6_reminder-note-1-20{fill:url(#linear-gradient-12-reminder-note-1-20);}.cls-7_reminder-note-1-20{opacity:.42;}.cls-7_reminder-note-1-20,.cls-14_reminder-note-1-20,.cls-18_reminder-note-1-20{fill:#68e1fd;}.cls-8_reminder-note-1-20{fill:url(#linear-gradient-3-reminder-note-1-20);}.cls-9_reminder-note-1-20{fill:url(#linear-gradient-8-reminder-note-1-20);}.cls-10_reminder-note-1-20{fill:url(#linear-gradient-9-reminder-note-1-20);}.cls-11_reminder-note-1-20{fill:url(#linear-gradient-7-reminder-note-1-20);}.cls-12_reminder-note-1-20{fill:url(#linear-gradient-5-reminder-note-1-20);}.cls-13_reminder-note-1-20{fill:url(#linear-gradient-6-reminder-note-1-20);}.cls-14_reminder-note-1-20{opacity:.24;}.cls-15_reminder-note-1-20{fill:#231f20;}.cls-16_reminder-note-1-20{fill:#fff;}.cls-17_reminder-note-1-20{fill:#ffb4a3;}</style><linearGradient id="linear-gradient-reminder-note-1-20" x1="246.57" y1="3591.77" x2="191.77" y2="3098.58" gradientTransform="translate(-33.8 3886.38) scale(1 -1)" gradientUnits="userSpaceOnUse"><stop offset="0" stop-color="#010101" stop-opacity="0"/><stop offset=".95" stop-color="#010101"/></linearGradient><linearGradient id="linear-gradient-2-reminder-note-1-20" x1="333.79" y1="3568.18" x2="286.57" y2="3621.27" xlink:href="#linear-gradient-reminder-note-1-20"/><linearGradient id="linear-gradient-3-reminder-note-1-20" x1="290.22" y1="3722.65" x2="-131.52" y2="3308.96" gradientTransform="translate(-33.8 3886.38) scale(1 -1)" gradientUnits="userSpaceOnUse"><stop offset="0" stop-color="#fff" stop-opacity="0"/><stop offset=".23" stop-color="#fff" stop-opacity=".23"/><stop offset=".95" stop-color="#fff"/></linearGradient><linearGradient id="linear-gradient-4-reminder-note-1-20" x1="188.3" y1="3661.19" x2="244.56" y2="3749.4" xlink:href="#linear-gradient-reminder-note-1-20"/><linearGradient id="linear-gradient-5-reminder-note-1-20" x1="231.33" y1="3707.94" x2="95.67" y2="3629.01" gradientTransform="translate(-1970.46 3205.36) rotate(32.19) scale(1 -1)" xlink:href="#linear-gradient-reminder-note-1-20"/><linearGradient id="linear-gradient-6-reminder-note-1-20" x1="220.69" y1="3703.06" x2="109.85" y2="3588.79" gradientTransform="translate(-1954.74 3222.89) rotate(31.9) scale(1 -1)" xlink:href="#linear-gradient-reminder-note-1-20"/><linearGradient id="linear-gradient-7-reminder-note-1-20" x1="218.95" y1="3711.88" x2="233.24" y2="3697.01" xlink:href="#linear-gradient-reminder-note-1-20"/><linearGradient id="linear-gradient-8-reminder-note-1-20" x1="230.92" y1="3723.45" x2="254.61" y2="3723.45" xlink:href="#linear-gradient-reminder-note-1-20"/><linearGradient id="linear-gradient-9-reminder-note-1-20" x1="546.65" y1="3642.69" x2="394.64" y2="3493.57" gradientTransform="translate(155.22 3878.13) rotate(-8.3) scale(1 -1)" xlink:href="#linear-gradient-3-reminder-note-1-20"/><linearGradient id="linear-gradient-10-reminder-note-1-20" x1="887.52" y1="3510.57" x2="736.67" y2="3362.58" gradientTransform="translate(348.07 3840.7) rotate(-16.97) scale(1 -1)" xlink:href="#linear-gradient-3-reminder-note-1-20"/><linearGradient id="linear-gradient-11-reminder-note-1-20" x1="1232.32" y1="3317.88" x2="1082.74" y2="3171.17" gradientTransform="translate(543.36 3770.06) rotate(-26.21) scale(1 -1)" xlink:href="#linear-gradient-3-reminder-note-1-20"/><linearGradient id="linear-gradient-12-reminder-note-1-20" x1="220.66" y1="3616.33" x2="411.04" y2="3529" xlink:href="#linear-gradient-reminder-note-1-20"/></defs><g id="background_reminder-note-1-20"><path class="cls-14_reminder-note-1-20 targetColor" d="M434.16,368.1c-4.12,11.76-6.92,22.88-7.67,33.18-4.57,62.37-83.77,64.79-135.73,59.65-35.98-3.56-70.08-19.46-106.26-20.13-19.18-.33-38.4,3.62-57.43,1.39-19.88-2.36-38.22-11.33-55.2-21.52-5.45-3.26-10.82-6.74-16.04-10.42-24.02-16.96-44.95-38.6-52.27-65.97-7.8-29.1,1-59.81,11.25-88.22,21.14-58.62,51.56-118.28,106.36-151.16,53.5-32.09,175.95-60.8,236.6-44.24,61.61,16.89,122.28,55.84,139.59,115.17,15.54,53.24-41.64,130.91-63.2,192.27Z" style="fill: rgb(104, 225, 253);"/><path class="cls-7_reminder-note-1-20 targetColor" d="M434.16,368.1c-4.12,11.76-6.92,22.88-7.67,33.18-4.57,62.37-83.77,64.79-135.73,59.65-35.98-3.56-70.08-19.46-106.26-20.13-19.18-.33-38.4,3.62-57.43,1.39-19.88-2.36-38.22-11.33-55.2-21.52-5.45-3.26-10.82-6.74-16.04-10.42.31-1,.73-1.97,1.26-2.88,8.08-13.9,46.52-20.37,61.27-24.48,43.34-12.15,88.35-18.32,133.37-20.58,60.83-3.09,121.7.81,182.43,5.78Z" style="fill: rgb(104, 225, 253);"/><path class="cls-1_reminder-note-1-20" d="M164.05,404.13c12.67-.65,25.23,2.58,35.87,9.21,2.6,1.62,5.2,3.5,8.26,3.94,4.22.6,8.25-1.62,11.99-3.6,31.29-16.27,68.16-19.51,102.01-8.95,5.76,1.82,12.4,5.55,11.96,11.35-.19,2.45-1.72,4.63-3.48,6.41-9.05,9.11-23.68,9.84-36.78,9.97l-85,.85c-7.74.08-15.51.15-23.17-.89-10.11-1.38-19.86-4.69-29.98-5.96-13.73-1.75-27.71.26-41.52-.74-17.74-1.31-34.71-7.5-48.9-17.82,3.15-9.96,14.5-14.96,24.75-18.38,37.19-12.44,81.95-24.88,121.7-23.2-1.14,10.69-38.29,29.63-47.7,37.81Z"/></g><g id="character_reminder-note-1-20"><path class="cls-18_reminder-note-1-20 targetColor" d="M320.25,271.77c.61,8.13-1.39,25.85-4.58,33.41-2.02,4.76-4.78,6.58-6.79,11.34-1.62-15.66-.62-38.35,1.77-53.92.58-3.75.14-8.13,1.05-11.68,4.47,5.73,8,13.65,8.54,20.85Z" style="fill: rgb(104, 225, 253);"/><path class="cls-15_reminder-note-1-20" d="M272.99,312.84l6.01,96.66,10.97,1.55,5-73.39,4.54,73.22,10.86.33s5.06-73.95,3.93-79.37,0-22.69,0-22.69l-41.32,3.69Z"/><path class="cls-18_reminder-note-1-20 targetColor" d="M314.03,314.55c-5.41,7.58-16.54,7.83-25.98,7.31-3.24-.18-6.64-.39-9.5-1.97-7.17-3.98-8.05-8.4-7.3-16.44-2.66-24.08-1.29-49.78,2.33-52.8,1.94-1.66,4.16-2.99,6.57-3.93,2.03-.82,4.22-1.22,6.42-1.15,1.1.03,2.21-.02,3.3-.14,4.72-.46,9.59-1.79,13.84-.13,2.96,1.15,5.44,3.27,7.83,5.35,3.78,3.23,6.74,57.94,2.49,63.89Z" style="fill: rgb(104, 225, 253);"/><path class="cls-17_reminder-note-1-20" d="M289.88,245.44c-1.1.12-2.2.17-3.3.14-2.2-.07-4.39.32-6.42,1.15.16-1.06.16-2.14,0-3.2-.56-2.81-2.67-3.59-5.2-4.17-1.64-.37-3.49-1.1-3.96-2.71-.52-1.78.93-3.89-.06-5.46-.23-.36-.58-.69-.6-1.12-.02-.44.33-.8.61-1.14,2.26-2.68,1.67-6.6,3.17-9.64,1.4-2.86,4.62-3.37,7.49-2.69,6.1,1.45,10.5,7.13,11.51,13.12.85,5.38-.66,10.85-3.24,15.71Z"/><path class="cls-15_reminder-note-1-20" d="M272.59,216.48c.89,2.95,3.44,5.16,6.2,6.74,1.38.68,2.66,1.51,3.84,2.48,3.61,3.4,2.73,9.03,2.66,13.89,0,3.45.58,7.04,2.73,9.81,3.67,4.72,10.57,5.64,16.7,5.79.66.09,1.33-.04,1.9-.37.45-.38.74-.91.82-1.48,1.2-5.42-4.1-10.49-3.67-16.02.25-3.12,2.3-5.85,2.97-8.92.97-4.45-1.12-9.08-4.19-12.53-1.22-1.49-2.79-2.68-4.59-3.48-3.21-1.29-6.98-.57-10.23-1.75-1.89-.69-3.49-1.97-5.36-2.71-5.15-1.99-11.3,3.48-9.78,8.55Z"/><path class="cls-4_reminder-note-1-20" d="M281.06,270.71s-5.12,10.46-13.51,16.59c0,0,.83,30.96,14.11,33.51,0,0,6.26,2.65,17.55.74,0,0-14.61-4.25-13.72-18.5,1.55-24.96-4.43-32.34-4.43-32.34Z"/><path class="cls-15_reminder-note-1-20" d="M271.12,416.19c-.38.31-.6.75-.62,1.23.06.33.24.63.5.85.97.76,2.17,1.22,3.42,1.3,4.04.58,8.15.36,12.1-.65,1-.17,1.92-.62,2.66-1.29.83-.92.89-2.25.95-3.46l.12-4.2c.03-.32,0-.65-.12-.96-.33-.77-1.35-.96-2.21-1.02-2.06-.14-4.13-.18-6.2-.11-.73,0-1.68-.1-2.27.35s-.79,1.32-1.18,1.79c-2.06,2.42-4.98,3.92-7.15,6.18Z"/><path class="cls-15_reminder-note-1-20" d="M291.91,416.21c-.36.3-.58.73-.59,1.18.05.33.22.63.49.85.94.74,2.09,1.17,3.29,1.25,3.9.56,7.88.35,11.7-.62.96-.17,1.84-.6,2.54-1.25.68-.98,1-2.16.89-3.33l.12-4.07c.03-.31,0-.63-.12-.93-.32-.75-1.31-.93-2.14-.99-2-.14-4.01-.18-6.02-.11-.71,0-1.62-.09-2.19.34s-.76,1.27-1.14,1.7c-1.9,2.34-4.73,3.8-6.82,5.97Z"/><path class="cls-18_reminder-note-1-20 targetColor" d="M261.43,275.95c-1.9,7.37-3.8,15.16-1.57,22.44,1.13,3.22,2.66,6.29,4.55,9.16l9.4,15.65c.22.45.55.85.96,1.16,1.12.56,2.5.19,3.16-.85.59-1.03.88-2.19.83-3.36.58-12.14-5.16-16-2.81-27.95.89-4.65,6.29-17.64,6.8-22.35.51-4.71,2.21-13.89-.89-17.57-10.29-12.17-18.91,17.75-20.45,23.67Z" style="fill: rgb(104, 225, 253);"/><path class="cls-17_reminder-note-1-20" d="M279.38,329.05c1.39-.06,2.36-1.35,2.84-2.6,1.45-4.03.15-8.5-3.28-11.21-.13-.12-.3-.2-.49-.22-.3,0-.49.3-.62.55-1.19,2.3-3.77,5.54-3.21,8.21.37,1.79,2.59,5.37,4.75,5.27Z"/></g><g id="note_reminder-note-1-20"><path class="cls-14_reminder-note-1-20 targetColor" d="M42.06,220.61c-13.37,49.81-18.17,101.38-14.24,152.67.38,4.96,1.25,10.6,5.57,13.35,2.33,1.47,5.23,1.79,8.02,1.93,32.11,1.7,62.55-12.46,91.32-26.27-17.74-31.16-34.18-62.97-49.31-95.44-7.4-15.91,10.63-54.97,3.9-71.16-1.62-3.89-24.44-2.02-30.72-1.15-8.25,1.14-13.57,22.4-14.55,26.06Z" style="fill: rgb(104, 225, 253);"/><path class="cls-18_reminder-note-1-20 targetColor" d="M267.99,313.65l-141.36,71.46-2.55,1.3S19.28,296.23,56.61,194.55l157.06-15.31c0,.13,0,.26,0,.39-.35,6.44-3.96,90.37,50.58,131.31,1.21.95,2.46,1.85,3.75,2.71Z" style="fill: rgb(104, 225, 253);"/><path class="cls-8_reminder-note-1-20" d="M267.99,313.65l-22.65,11.45-118.71,60.01c-12.4-11.27-100.78-95.98-66.03-190.57l153.03-14.9c-.22,4.3-1.91,43.1,13.21,80.63,7.52,18.67,19.22,37.05,37.37,50.68,1.23.94,2.49,1.83,3.78,2.7Z"/><path class="cls-5_reminder-note-1-20" d="M170.76,212.83c2.7,1.28,5.7,1.83,8.7,1.6,3.02-.26,5.75-1.83,7.43-4.25.54-.77.79-1.69.71-2.62-.11-.54-.32-1.06-.6-1.54-3.54-6.61-8.69-12.26-14.05-17.6-1.39-1.55-3.08-2.83-4.98-3.77-2.8-1.17-9.09-1.26-11.23,1.33-1.85,2.25-.7,7.35-.09,9.85,1.72,7.27,6.93,13.88,14.11,17.01Z"/><ellipse class="cls-18_reminder-note-1-20 targetColor" cx="178.02" cy="189.79" rx="14.26" ry="23.33" transform="translate(-73.74 124.01) rotate(-32.19)" style="fill: rgb(104, 225, 253);"/><ellipse class="cls-12_reminder-note-1-20" cx="178.02" cy="189.79" rx="14.26" ry="23.33" transform="translate(-73.74 124.01) rotate(-32.19)"/><ellipse class="cls-13_reminder-note-1-20" cx="179.74" cy="189.7" rx="13.09" ry="23.4" transform="translate(-72.97 123.14) rotate(-31.79)"/><path class="cls-18_reminder-note-1-20 targetColor" d="M173.05,175.29l24.88-15.13,11.68,14.63-22.6,21.27s-17.52,3.37-13.96-20.78Z" style="fill: rgb(104, 225, 253);"/><path class="cls-11_reminder-note-1-20" d="M173.05,175.29l24.88-15.13,11.68,14.63-22.6,21.27s-17.52,3.37-13.96-20.78Z"/><path class="cls-18_reminder-note-1-20 targetColor" d="M218.04,177.8c-.37.35-.78.65-1.23.9-5.19,2.88-13.43-1.54-18.44-9.85-5-8.31-4.84-17.37.35-20.27.37-.22.76-.39,1.17-.52,5.19-1.7,12.64,2.66,17.27,10.37,4.56,7.58,4.84,15.81.89,19.37Z" style="fill: rgb(104, 225, 253);"/><g class="cls-19_reminder-note-1-20"><path class="cls-9_reminder-note-1-20" d="M218.04,177.8c-5.2,1.7-12.62-2.69-17.24-10.37-4.62-7.68-4.84-15.77-.89-19.37,5.19-1.7,12.64,2.66,17.27,10.37,4.53,7.58,4.82,15.81.86,19.37Z"/></g><path class="cls-10_reminder-note-1-20" d="M91.68,238.96l92.89-13.02c2.18-.31,4.2,1.14,4.52,3.24h0c.32,2.09-1.19,4.04-3.37,4.34l-92.89,13.02c-2.18.31-4.2-1.14-4.52-3.24h0c-.32-2.09,1.19-4.04,3.37-4.34Z"/><path class="cls-3_reminder-note-1-20" d="M101.47,278.95l89.79-26.33c2.1-.62,4.33.52,4.97,2.54h0c.64,2.02-.54,4.16-2.65,4.78l-89.79,26.33c-2.1.62-4.33-.52-4.97-2.54h0c-.64-2.02.54-4.16,2.65-4.78Z"/><path class="cls-2_reminder-note-1-20" d="M122.7,314l84.22-39.84c1.97-.93,4.36-.15,5.33,1.74h0c.97,1.9.16,4.19-1.82,5.13l-84.22,39.84c-1.97.93-4.36.15-5.33-1.74h0c-.97-1.9-.16-4.19,1.82-5.13Z"/><path class="cls-6_reminder-note-1-20" d="M267.99,313.65l-22.65,11.45c-6.29-2.89-11.92-6.96-16.55-11.97-4.71-5.04-7.77-12.02-6.2-18.67.79-3.45,2.77-6.58,3.54-10.03.95-4.25.07-8.64-1.41-12.76-1.29-3.6-2.74-8.28.37-10.63.51-.42,1.12-.72,1.77-.85,7.52,18.67,19.22,37.05,37.37,50.68,1.22,1,2.47,1.93,3.75,2.79Z"/></g><g id="notifiactions_reminder-note-1-20"><polygon class="cls-14_reminder-note-1-20 targetColor" points="328.51 221.35 315.23 244.33 347.7 233.55 328.51 221.35" style="fill: rgb(104, 225, 253);"/><ellipse class="cls-14_reminder-note-1-20 targetColor" cx="371.61" cy="177.75" rx="65.98" ry="63.39" style="fill: rgb(104, 225, 253);"/><ellipse class="cls-16_reminder-note-1-20" cx="366.74" cy="174.55" rx="65.98" ry="63.39"/><path class="cls-18_reminder-note-1-20 targetColor" d="M401.41,162.44c.18.68.42,1.35.73,1.98-.03.18.03.36.15.49l.54,1.97c-.03.23.03.47.18.66l.39,2.3c-.04.18,0,.37.12.52l.22,2.46v3.82l-.24,2.96c-.11.27-.16.56-.13.85l-.58,2.98-.31,1.16-1.25,3.63-.65,1.49c-.92,1.8-1.93,3.56-3.04,5.27l-2.71,3.47c-1.31,1.36-2.67,2.67-4.09,3.93l-3.61,2.6c-1.77,1.07-3.6,2.04-5.48,2.92l-1.55.62-3.78,1.21-1.21.29-3.09.55c-.3-.02-.61.03-.89.14l-3.08.22h-3.98l-2.4-.2c-.21-.12-.46-.17-.7-.13l-2.39-.38c-.2-.14-.45-.2-.69-.16l-2.05-.52c-.14-.11-.33-.17-.51-.15-.61-.28-1.25-.49-1.91-.63l-.69-.29-1.88-.75-.52-.26-1.51-.71-.73-.43-1.32-.73c-.2-.21-.46-.37-.74-.46l-1.3-.85c-.25-.17-.5-.34-.73-.52l-1.24-.94c-.17-.23-.39-.42-.66-.54l-1.26-1.1c-.08-.18-.24-.31-.43-.37l-1.28-1.28-.49-.52-1.03-1.15-.53-.66-1.03-1.33c-.11-.26-.28-.5-.5-.69-.23-.47-.53-.9-.89-1.29l-.32-.5-1-1.77-.21-.37-.72-1.48c-.03-.25-.14-.48-.33-.66-.17-.63-.41-1.24-.72-1.82l-.22-.68-.6-1.8c.02-.23-.05-.47-.19-.66-.09-.73-.26-1.45-.5-2.15l-.1-.68-.29-1.96c.04-.34,0-.68-.13-1l-.09-2.31c.06-.28.05-.58-.05-.85.11-.87.15-1.75.12-2.63l.06-.85c.13-.85.27-1.77.41-2.66.07-.37.13-.75.2-1.13l.89-3.3c.2-.36.33-.75.38-1.15.64-1.44,1.27-2.88,1.9-4.3l1.01-1.82c2.26-3.64,5.14-6.9,8.51-9.65,1.67-1.29,3.42-2.48,5.24-3.56l1.89-.97,4.48-1.83c.42-.04.83-.17,1.2-.37l3.44-.85,1.18-.19,2.77-.4.89-.06c.91.03,1.83,0,2.74-.11.28.09.59.11.89.05l2.57.09c.27.13.58.17.89.13l2.04.28.89.14c.68.2,1.38.34,2.09.43.2.14.44.2.68.19l1.87.58.72.21c.6.29,1.23.52,1.89.69.19.17.44.28.7.31l1.53.68c.09.15.25.17.4.21l1.84.96.52.31c.41.34.86.62,1.35.85l.72.48,1.43.94.68.51,1.2.99.54.47,1.34,1.23.39.41,1.15,1.21c.13.25.32.47.56.63l.98,1.19.53.7.99,1.4c.07.22.21.42.39.57l.76,1.27.44.71.74,1.45.27.51.77,1.8.19.49ZM362.94,155.63c-.17.31-.22.66-.14,1,0,.36-.34.37-.54.52-3.29,1.26-5.9,3.76-7.23,6.92-.68,1.19-1.18,2.46-1.49,3.79-.16.37-.25.76-.26,1.16-.32,1.02-.51,2.08-.58,3.15-.1.27-.12.57-.06.85-.16.87-.22,1.75-.17,2.64v.85l-.24,2.65-.28,1.16c-.09.2-.18.4-.26.6-.71,2.09-2.36,3.77-4.5,4.56-1.63.63-2.58,2.26-2.28,3.92,0,.31.09.61.28.85.18.64.61,1.18,1.2,1.51.11.18.31.3.52.32.66.41,1.46.56,2.24.43h11.02l2.57.04v.48c-.13.73-.02,1.48.32,2.14,0,.2.11.39.27.51.33.63.9,1.12,1.6,1.34.19.16.44.26.7.26,1.54.37,3.15-.24,4.01-1.51.57-.93.79-2.02.6-3.08l.2-.2h13.77c2.07.1,3.82-1.43,3.92-3.42,0-.12,0-.23,0-.35.06-.23.02-.48-.12-.68-.06-.64-.38-1.23-.89-1.64-.06-.16-.18-.3-.35-.37-.54-.43-1.16-.75-1.82-.94l-.52-.33-1.2-1.03-.54-.63-.89-1.5-.25-.53-.54-1.81-.13-.85-.12-2.29v-.85c.02-.77-.02-1.54-.13-2.31.05-.29,0-.59-.12-.85,0-.73-.11-1.46-.34-2.16l-.12-.67c-.09-.61-.24-1.21-.46-1.79-.02-.3-.12-.6-.3-.85-.12-.64-.36-1.25-.71-1.81-.02-.26-.14-.5-.32-.69-.18-.54-.46-1.04-.82-1.49-.07-.24-.21-.46-.41-.62-.26-.5-.61-.95-1.03-1.34-.11-.22-.28-.41-.5-.54-.32-.44-.73-.83-1.2-1.12-.1-.18-.27-.3-.47-.36-.44-.43-.97-.77-1.55-.99-.25-.22-.56-.37-.89-.45-.31-.33-1.07-.14-1.06-.85.07-.23.02-.47-.12-.66-.06-.64-.37-1.24-.89-1.66-.17-.27-.42-.49-.72-.61-.53-.41-1.2-.61-1.88-.57-.41-.1-.84-.06-1.21.11-1.37.28-2.42,1.32-2.67,2.65l.03-.02Z" style="fill: rgb(104, 225, 253);"/><polygon class="cls-16_reminder-note-1-20" points="328.51 216.67 315.23 239.65 347.7 228.87 328.51 216.67"/></g></svg>